<svg width="21" height="21" viewBox="0 0 21 21" fill="none" xmlns="http://www.w3.org/2000/svg">
<path d="M10.5 21C10.2911 21 10.0943 20.9003 9.97064 20.7318L4.3044 13.0048C3.20563 11.5065 2.625 9.73288 2.625 7.875C2.625 3.53279 6.15779 0 10.5 0C14.8422 0 18.375 3.53279 18.375 7.875C18.375 9.73288 17.7944 11.5065 16.6959 13.0048L11.0294 20.7318C10.9057 20.9003 10.7089 21 10.5 21ZM10.5 1.3125C6.88133 1.3125 3.9375 4.25633 3.9375 7.875C3.9375 9.45154 4.43033 10.9573 5.36279 12.2287L10.5 19.2341L15.6375 12.2287C16.5697 10.9573 17.0625 9.45154 17.0625 7.875C17.0625 4.25633 14.1187 1.3125 10.5 1.3125ZM10.5 11.1562C8.69083 11.1562 7.21875 9.68417 7.21875 7.875C7.21875 6.06583 8.69083 4.59375 10.5 4.59375C12.3092 4.59375 13.7812 6.06583 13.7812 7.875C13.7812 9.68417 12.3092 11.1562 10.5 11.1562ZM10.5 5.90625C9.41437 5.90625 8.53125 6.78937 8.53125 7.875C8.53125 8.96063 9.41437 9.84375 10.5 9.84375C11.5856 9.84375 12.4688 8.96063 12.4688 7.875C12.4688 6.78937 11.5856 5.90625 10.5 5.90625Z" fill="#384685"/>
</svg>
