<svg width="26" height="17" viewBox="0 0 26 17" fill="none" xmlns="http://www.w3.org/2000/svg">
<path d="M-9.34901e-08 8.23151C-9.34901e-08 8.43187 0.121186 8.69812 0.244183 8.82747L7.17607 16.193C7.49974 16.5275 8.02409 16.5662 8.40125 16.2268C8.73852 15.9231 8.74698 15.3311 8.4351 15.0014L2.87074 9.09822L25.1283 9.09822C25.607 9.09822 25.9948 8.71018 25.9948 8.23179C25.9948 7.75308 25.6067 7.36536 25.1283 7.36536L2.87074 7.36536L8.4351 1.46221C8.74698 1.1325 8.72492 0.554937 8.40125 0.237038C8.05975 -0.0987171 7.49459 -0.0687995 7.17607 0.270886L0.244183 7.63611C0.0404927 7.83587 0.00331893 8.02838 -9.34901e-08 8.23177V8.23151Z" fill="#384685"/>
</svg>
