<svg width="26" height="17" viewBox="0 0 26 17" fill="none" xmlns="http://www.w3.org/2000/svg">
<path d="M25.9948 8.23187C25.9948 8.0315 25.8736 7.76526 25.7506 7.63591L18.8187 0.270379C18.495 -0.0641697 17.9707 -0.102853 17.5935 0.236531C17.2562 0.540257 17.2478 1.13228 17.5597 1.46202L23.124 7.36516H0.866428C0.387723 7.36516 0 7.7532 0 8.23159C0 8.7103 0.38804 9.09802 0.866428 9.09802H23.124L17.5597 15.0012C17.2478 15.3309 17.2698 15.9084 17.5935 16.2263C17.935 16.5621 18.5002 16.5322 18.8187 16.1925L25.7506 8.82727C25.9543 8.62751 25.9914 8.435 25.9948 8.23161V8.23187Z" fill="#384685"/>
</svg>
