<svg width="55" height="44" viewBox="0 0 55 44" fill="none" xmlns="http://www.w3.org/2000/svg">
<path d="M3.86771 39.673H6.11644C6.61612 41.7245 8.82121 43.2829 11.4615 43.2829C14.1013 43.2829 16.3064 41.7331 16.8065 39.673H36.8054C37.3051 41.7245 39.5101 43.2829 42.1504 43.2829C44.7902 43.2829 46.9953 41.7331 47.4955 39.673H48.3212C51.0915 39.673 53.3511 37.8098 53.3511 35.5255V32.9904C53.3511 32.2826 53.1229 31.6022 52.7101 30.993C52.6773 30.9304 52.6341 30.8764 52.5905 30.8228C52.5468 30.7602 52.5036 30.6972 52.46 30.6346L47.1586 24.3194C46.2133 23.1996 44.6707 22.5278 43.0197 22.5278H33.1339V17.0636C33.1339 15.3079 31.3957 13.8747 29.2665 13.8747L3.85649 13.875C1.72729 13.8664 0 15.2907 0 17.0463V36.4849C0 38.2402 1.73823 39.6735 3.86743 39.6735L3.86771 39.673ZM11.461 41.4916C9.64691 41.4916 8.18011 40.2822 8.18011 38.7863C8.18011 37.2905 9.64691 36.081 11.461 36.081C13.2642 36.081 14.731 37.2905 14.7419 38.7773V38.7863C14.7419 40.2731 13.2643 41.4916 11.461 41.4916V41.4916ZM42.139 41.4916C40.3358 41.4916 38.8581 40.2822 38.8581 38.7863C38.8581 37.2905 40.3249 36.081 42.139 36.081C43.9422 36.081 45.409 37.2905 45.4199 38.7773V38.7863V38.7953C45.4199 40.2731 43.9531 41.4916 42.139 41.4916V41.4916ZM45.3654 25.3315L49.6237 30.4106H42.7474V24.3197H43.0188C43.9532 24.3193 44.833 24.6957 45.3654 25.3315ZM40.5746 24.3193V31.3063C40.5746 31.7989 41.0633 32.2019 41.6608 32.2019H51.0033C51.1119 32.4527 51.1769 32.7215 51.1769 32.9903V35.5254C51.1769 36.8244 49.8952 37.8813 48.3198 37.8813H47.4941C46.9835 35.8298 44.7894 34.2893 42.1491 34.2893C39.5093 34.2893 37.3146 35.8391 36.804 37.8813H32.9258C33.0453 37.6035 33.1213 37.308 33.1213 36.9946L33.1222 24.3193L40.5746 24.3193ZM2.17266 17.0459C2.17266 16.2755 2.93332 15.6576 3.8563 15.6576H29.2547C30.189 15.6576 30.9492 16.2848 30.9492 17.0549V36.9945C30.9492 37.4871 30.4714 37.8811 29.874 37.8811H16.8052C16.2946 35.8297 14.1005 34.2892 11.4602 34.2892C8.82036 34.2892 6.62575 35.839 6.11513 37.8811H3.86686C2.93253 37.8811 2.17193 37.2539 2.17193 36.4835L2.17266 17.0459Z" fill="#384685"/>
<path d="M43.9864 0C38.294 0 33.655 3.81612 33.655 8.51885C33.655 13.2216 38.2831 17.0377 43.9864 17.0377C49.6788 17.0377 54.3178 13.2216 54.3178 8.51885C54.3173 3.81574 49.6897 0 43.9864 0ZM43.9864 15.2368C39.4888 15.2368 35.8279 12.2182 35.8279 8.50964C35.8279 4.8011 39.4888 1.78243 43.9864 1.78243C48.484 1.78243 52.1449 4.81013 52.1449 8.51866C52.1449 12.2272 48.484 15.2368 43.9864 15.2368Z" fill="#384685"/>
<path d="M46.9847 7.62244H45.0838V5.11435C45.0838 4.62173 44.595 4.21872 43.9976 4.21872C43.4001 4.21872 42.9114 4.62173 42.9114 5.11435V8.51807C42.9114 9.01069 43.4001 9.4137 43.9976 9.4137H46.9852C47.5826 9.4137 48.0714 9.01069 48.0714 8.51807C48.0714 8.02546 47.5821 7.62244 46.9847 7.62244H46.9847Z" fill="#384685"/>
</svg>
