<svg width="24" height="24" viewBox="0 0 24 24" fill="none" xmlns="http://www.w3.org/2000/svg">
<path d="M18.4295 16.4758H10.6657C10.0984 16.4797 9.54508 16.2976 9.0887 15.9567C8.63232 15.6159 8.29742 15.1347 8.13417 14.5852L4.40978 2.38318C4.34711 2.17722 4.22052 1.99716 4.04874 1.86966C3.87697 1.74216 3.66915 1.67401 3.45608 1.6753H0.831214C0.722442 1.67549 0.614697 1.65402 0.514131 1.6121C0.413565 1.57019 0.322147 1.50865 0.245098 1.431C0.0894898 1.27419 0.00185288 1.06128 0.00146613 0.83912C0.00107938 0.61696 0.0879745 0.403744 0.243036 0.246377C0.398097 0.0890092 0.608622 0.000381396 0.828298 -9.73071e-06H3.45316C4.02098 -0.00451714 4.57494 0.177314 5.03191 0.518199C5.48888 0.859085 5.82422 1.34064 5.98761 1.89061L6.74882 4.38588H21.3314C21.7718 4.38639 22.2052 4.49773 22.5925 4.70987C22.9797 4.92201 23.3087 5.22829 23.5497 5.60108C23.7908 5.97387 23.9363 6.40147 23.9731 6.84531C24.01 7.28916 23.937 7.73531 23.7609 8.14353L20.8443 14.8713C20.6384 15.3463 20.3007 15.7507 19.872 16.0355C19.4434 16.3203 18.9423 16.4733 18.4295 16.4758ZM7.26505 6.06119L9.71492 14.0927C9.77692 14.2987 9.90286 14.479 10.0741 14.6071C10.2453 14.7351 10.4528 14.8039 10.6657 14.8035H18.4295C18.6216 14.8045 18.81 14.7494 18.972 14.6448C19.1339 14.5401 19.2625 14.3904 19.3423 14.2136L22.2588 7.4858C22.3253 7.33255 22.3529 7.16494 22.3392 6.99817C22.3255 6.8314 22.2708 6.67074 22.1801 6.53073C22.0895 6.39073 21.9657 6.27582 21.8201 6.1964C21.6744 6.11698 21.5115 6.07558 21.346 6.07594L7.26505 6.06119Z" fill="#1D1818"/>
<path d="M10.727 24C10.1997 24 9.68436 23.8419 9.24599 23.5457C8.80762 23.2495 8.46595 22.8284 8.26419 22.3358C8.06243 21.8432 8.00964 21.3012 8.1125 20.7782C8.21536 20.2553 8.46924 19.775 8.84204 19.3979C9.21485 19.0209 9.68983 18.7642 10.2069 18.6601C10.724 18.5561 11.26 18.6095 11.7471 18.8135C12.2342 19.0176 12.6505 19.3631 12.9434 19.8064C13.2363 20.2498 13.3927 20.771 13.3927 21.3042C13.3919 22.0189 13.1108 22.7042 12.6111 23.2096C12.1113 23.715 11.4337 23.9992 10.727 24ZM10.727 20.2836C10.5274 20.2836 10.3323 20.3435 10.1663 20.4556C10.0004 20.5678 9.87105 20.7272 9.79467 20.9136C9.7183 21.1001 9.69831 21.3053 9.73725 21.5033C9.77619 21.7012 9.8723 21.8831 10.0134 22.0258C10.1546 22.1685 10.3344 22.2657 10.5301 22.3051C10.7259 22.3445 10.9288 22.3243 11.1131 22.247C11.2975 22.1698 11.4551 22.039 11.566 21.8711C11.6769 21.7033 11.7361 21.506 11.7361 21.3042C11.7353 21.0338 11.6288 20.7746 11.4397 20.5834C11.2506 20.3922 10.9944 20.2844 10.727 20.2836Z" fill="#1D1818"/>
<path d="M18.2135 24C17.6863 24 17.1709 23.8419 16.7326 23.5457C16.2942 23.2495 15.9525 22.8284 15.7508 22.3358C15.549 21.8432 15.4962 21.3012 15.5991 20.7782C15.7019 20.2553 15.9558 19.775 16.3286 19.3979C16.7014 19.0209 17.1764 18.7642 17.6935 18.6601C18.2106 18.5561 18.7466 18.6095 19.2337 18.8135C19.7208 19.0176 20.1371 19.3631 20.43 19.8064C20.7229 20.2498 20.8792 20.771 20.8792 21.3042C20.8785 22.0189 20.5974 22.7042 20.0976 23.2096C19.5979 23.715 18.9203 23.9992 18.2135 24ZM18.2135 20.2836C18.014 20.2836 17.8189 20.3435 17.6529 20.4556C17.487 20.5678 17.3576 20.7272 17.2812 20.9136C17.2049 21.1001 17.1849 21.3053 17.2238 21.5033C17.2628 21.7012 17.3589 21.8831 17.5 22.0258C17.6411 22.1685 17.8209 22.2657 18.0167 22.3051C18.2124 22.3445 18.4153 22.3243 18.5997 22.247C18.7841 22.1698 18.9417 22.039 19.0526 21.8711C19.1635 21.7033 19.2227 21.506 19.2227 21.3042C19.2219 21.0338 19.1153 20.7746 18.9262 20.5834C18.7372 20.3922 18.4809 20.2844 18.2135 20.2836Z" fill="#1D1818"/>
</svg>
