<svg width="50" height="48" viewBox="0 0 50 48" fill="none" xmlns="http://www.w3.org/2000/svg">
<path d="M49.0449 23.5783L45.6966 19.1814L46.8098 13.7702C46.8736 13.4625 46.723 13.1498 46.4435 13.0087L41.5166 10.5069L40.1713 5.14669C40.0947 4.84234 39.8246 4.62838 39.5108 4.62146L33.9873 4.49754L30.4477 0.25229C30.2472 0.00917029 29.9064 -0.0655432 29.6243 0.0638502L24.5935 2.35798L19.5636 0.0620772C19.2814 -0.0669522 18.9406 0.00959026 18.7402 0.250517L15.2017 4.49614L9.6788 4.61861C9.36534 4.62553 9.09489 4.83949 9.01835 5.14384L7.67225 10.504L2.745 13.0041C2.46471 13.1452 2.31417 13.4579 2.37796 13.7637L3.4904 19.1786L0.142149 23.5787C-0.047383 23.8284 -0.047383 24.1736 0.142149 24.4218L3.4904 28.8187L2.37646 34.2299C2.31268 34.5376 2.46321 34.8503 2.74278 34.9914L7.66966 37.4914L9.01501 42.8516C9.09155 43.156 9.36163 43.37 9.67546 43.3769L15.199 43.5008L18.7393 47.7479C18.8745 47.9112 19.0724 47.9994 19.2736 47.9994C19.3713 47.9994 19.4697 47.979 19.5627 47.9367L24.5941 45.6422L29.6231 47.9367C29.907 48.0676 30.2453 47.991 30.4465 47.7483L33.985 43.5027L39.5078 43.382C39.8213 43.3736 40.0918 43.1593 40.1683 42.8553L41.5144 37.4965L46.443 34.9947C46.7226 34.8536 46.8731 34.5409 46.8094 34.2351L45.6969 28.8202L49.0459 24.4218C49.2343 24.1732 49.2343 23.8266 49.0448 23.5784L49.0449 23.5783ZM44.3969 28.2285C44.2755 28.3882 44.2285 28.5937 44.2693 28.7895L45.3384 33.9934L40.6 36.3983C40.4206 36.4883 40.2891 36.653 40.2399 36.8488L38.9467 42.0002L33.6375 42.1175C33.4363 42.1226 33.2468 42.2145 33.1185 42.369L29.717 46.4492L24.8827 44.2432C24.6994 44.1616 24.4883 44.1616 24.305 44.2432L19.4682 46.4492L16.0656 42.3669C15.9373 42.2123 15.7478 42.1205 15.5466 42.1172L10.2374 41.9965L8.9442 36.8437C8.89499 36.6483 8.76305 36.4835 8.58408 36.3932L3.84746 33.99L4.91726 28.7895C4.95809 28.5923 4.91143 28.3867 4.78969 28.2271L1.57161 24.0004L4.78969 19.7701C4.91107 19.6104 4.95809 19.4049 4.91726 19.2091L3.84821 14.0052L8.58557 11.6021C8.76563 11.5121 8.89758 11.3473 8.94679 11.1516L10.24 5.99872L15.5491 5.88135C15.7503 5.87625 15.9399 5.7844 16.0682 5.62986L19.4689 1.5494L24.3042 3.75712C24.4876 3.83876 24.6986 3.83876 24.8819 3.75712L29.718 1.55117L33.1206 5.63163C33.2489 5.78617 33.4384 5.87802 33.6396 5.88131L38.9488 6.00013L40.242 11.1548C40.2912 11.3501 40.4228 11.5149 40.6021 11.6053L45.3387 14.0102L44.2689 19.2107C44.2281 19.4079 44.2747 19.6135 44.3965 19.7731L47.6146 23.9998L44.3969 28.2285Z" fill="#384685"/>
<path d="M24.146 7.12546C14.8419 7.12546 7.27173 14.6953 7.27173 24.0006C7.27173 33.306 14.8415 40.8758 24.146 40.8758C33.45 40.8758 41.0202 33.306 41.0202 24.0006C41.0206 14.6954 33.4508 7.12546 24.146 7.12546ZM24.146 39.4817C15.6092 39.4817 8.66392 32.5374 8.66392 24.0006C8.66392 15.4639 15.609 8.51951 24.146 8.51951C32.6829 8.51951 39.628 15.4639 39.628 24.0006C39.6284 32.5374 32.6833 39.4817 24.146 39.4817Z" fill="#384685"/>
<path d="M28.3785 18.9949L28.7328 15.9222C28.7973 15.3598 28.7226 14.7868 28.5163 14.2685C27.5329 11.7939 25.8751 11.4283 25.0051 11.4932C24.5506 11.5053 24.1187 11.709 23.8212 12.0542C23.5245 12.3975 23.3853 12.8532 23.4381 13.3015L23.7202 15.7301C23.7669 16.1259 23.6922 16.5221 23.5154 16.8553L21.0467 21.1533C20.914 21.4016 20.7186 21.6141 20.5138 21.7449L20.3833 21.8178C20.2791 21.5641 20.0312 21.3844 19.7407 21.3844H14.801C14.4169 21.3844 14.1052 21.6972 14.1052 22.0813V31.6718C14.1052 32.056 14.4172 32.3687 14.801 32.3687H19.7407C20.1165 32.3687 20.419 32.068 20.4318 31.6951L20.8105 31.9167C21.6441 32.4113 22.5994 32.673 23.5715 32.673L31.4329 32.6712C31.4559 32.673 31.4789 32.673 31.5018 32.673C32.6703 32.673 33.6567 31.8081 33.8116 30.6351C33.8473 30.3651 33.8371 30.0997 33.7854 29.8449C34.5705 29.5526 35.1737 28.8455 35.2911 27.9583C35.3564 27.4586 35.2554 26.9607 35.0236 26.5342C35.1614 26.446 35.2904 26.3421 35.4092 26.2247C35.8535 25.783 36.0985 25.1932 36.0985 24.5659C36.0985 23.9255 35.824 23.3577 35.4005 22.9319C35.5036 22.8266 35.6297 22.746 35.7121 22.6217C36.0715 22.0761 36.1856 21.4203 36.0325 20.7727C35.7861 19.7258 34.853 18.995 33.7628 18.995L28.3785 18.9949ZM19.0447 30.975H15.4967V22.7779H19.0447V30.975ZM34.677 21.0925C34.7407 21.3626 34.6948 21.6345 34.5494 21.8558C34.4127 22.0624 34.1976 22.2024 33.9589 22.2534H28.9901C28.606 22.2534 28.2943 22.5662 28.2943 22.9504C28.2943 23.3345 28.6063 23.6473 28.9901 23.6473H33.9608C34.3931 23.7406 34.7058 24.1182 34.7058 24.5669C34.7058 24.8202 34.6063 25.0597 34.427 25.2383C34.2484 25.4151 34.0122 25.512 33.7614 25.512H33.7519L28.676 25.5113C28.2918 25.5113 27.9802 25.824 27.9802 26.2082C27.9802 26.5924 28.2922 26.9051 28.676 26.9051H33.5041C33.7826 27.1052 33.9557 27.4296 33.9109 27.777C33.842 28.292 33.3772 28.6572 32.8531 28.5913C32.8429 28.5898 32.8338 28.5975 32.8232 28.5967C32.8028 28.5949 32.7853 28.5847 32.7649 28.5847L28.3359 28.5745H28.3341C27.9499 28.5745 27.639 28.8854 27.6383 29.2696C27.6376 29.6538 27.9485 29.9665 28.3326 29.968L32.3599 29.9771C32.4193 30.1258 32.4539 30.2847 32.4317 30.4538C32.3672 30.9383 31.9531 31.3665 31.4534 31.2798H23.5716C22.8485 31.2798 22.1388 31.0862 21.5177 30.7188L20.8014 30.2975C20.6921 30.2326 20.5346 30.2045 20.437 30.1969V23.2956C20.543 23.2894 20.648 23.2668 20.7413 23.2154L21.2301 22.9402C21.6704 22.6599 22.0316 22.2673 22.2653 21.827L24.734 17.5289C25.0562 16.9257 25.1834 16.2474 25.1043 15.5694L24.8222 13.1408C24.812 13.0541 24.851 12.9928 24.8758 12.9659C24.9002 12.9371 24.9556 12.8879 25.0449 12.8842C26.0002 12.8912 26.7121 13.4977 27.2228 14.7825C27.3452 15.0883 27.3886 15.4302 27.3503 15.7648L26.9228 19.5191C26.871 19.7265 26.9184 19.9506 27.0504 20.119C27.182 20.2889 27.3879 20.3891 27.6019 20.3891H33.7625C34.1962 20.3887 34.5811 20.6847 34.677 21.0926L34.677 21.0925Z" fill="#384685"/>
</svg>
