<svg width="17" height="19" viewBox="0 0 17 19" fill="none" xmlns="http://www.w3.org/2000/svg">
<path d="M16.1238 19H0.863994C0.635375 19 0.416074 18.9096 0.254131 18.7487C0.0921879 18.5877 0.000804998 18.3693 0 18.1413L0 15.0222C0 13.2518 0.705144 11.5539 1.96031 10.3021C3.21547 9.05026 4.91784 8.34698 6.69291 8.34698H10.3071C12.0822 8.34698 13.7845 9.05026 15.0397 10.3021C16.2949 11.5539 17 13.2518 17 15.0222V18.1413C16.9996 18.2552 16.9766 18.368 16.9322 18.473C16.8879 18.578 16.8231 18.6731 16.7416 18.753C16.6601 18.8328 16.5635 18.8958 16.4575 18.9382C16.3515 18.9806 16.2381 19.0016 16.1238 19ZM1.72799 17.2948H15.272V15.0222C15.2712 13.7088 14.748 12.4495 13.8171 11.5206C12.8863 10.5916 11.6239 10.069 10.3071 10.0674H6.69291C5.3761 10.069 4.11373 10.5916 3.18289 11.5206C2.25204 12.4495 1.72879 13.7088 1.72799 15.0222V17.2948Z" fill="#1D1818"/>
<path d="M8.54871 9.679C7.58406 9.68199 6.64027 9.39904 5.83716 8.86608C5.03404 8.33312 4.40781 7.57418 4.03797 6.6856C3.66813 5.79702 3.57135 4.81887 3.75993 3.87534C3.9485 2.9318 4.41392 2.06542 5.09711 1.38619C5.78029 0.706949 6.65042 0.245484 7.59705 0.0603732C8.54368 -0.124738 9.52412 -0.0251475 10.4139 0.346502C11.3037 0.718152 12.0627 1.3451 12.5945 2.14776C13.1264 2.95042 13.4071 3.89259 13.4011 4.85467C13.3931 6.13432 12.8788 7.35906 11.9701 8.26251C11.0614 9.16596 9.83178 9.67503 8.54871 9.679ZM8.54871 1.7234C7.93068 1.7234 7.32651 1.90603 6.81248 2.24823C6.29845 2.59044 5.89759 3.07686 5.66053 3.6461C5.42347 4.21534 5.36083 4.84187 5.48052 5.44659C5.60021 6.05131 5.89686 6.6071 6.33302 7.0438C6.76919 7.4805 7.3253 7.77852 7.93115 7.90024C8.53701 8.02196 9.16544 7.96192 9.73711 7.7277C10.3088 7.49348 10.7981 7.09558 11.1432 6.58424C11.4883 6.0729 11.6737 5.47105 11.6761 4.85467C11.6773 4.44415 11.5973 4.03742 11.4407 3.65777C11.2842 3.27812 11.054 2.93299 10.7635 2.64215C10.4731 2.3513 10.1279 2.12045 9.74786 1.9628C9.36781 1.80515 8.96032 1.72379 8.54871 1.7234Z" fill="#1D1818"/>
</svg>
