<svg width="44" height="44" viewBox="0 0 44 44" fill="none" xmlns="http://www.w3.org/2000/svg">
<path d="M22 44C21.5623 44 21.15 43.7912 20.8909 43.438L9.01874 27.2482C6.71655 24.1088 5.5 20.3927 5.5 16.5C5.5 7.40204 12.902 0 22 0C31.098 0 38.5 7.40204 38.5 16.5C38.5 20.3927 37.2834 24.1088 34.9819 27.2482L23.1091 43.438C22.85 43.7912 22.4377 44 22 44ZM22 2.75C14.418 2.75 8.25 8.91803 8.25 16.5C8.25 19.8032 9.28259 22.9581 11.2363 25.6221L22 40.3L32.7643 25.6221C34.7174 22.9581 35.75 19.8032 35.75 16.5C35.75 8.91803 29.582 2.75 22 2.75ZM22 23.375C18.2094 23.375 15.125 20.2906 15.125 16.5C15.125 12.7094 18.2094 9.625 22 9.625C25.7906 9.625 28.875 12.7094 28.875 16.5C28.875 20.2906 25.7906 23.375 22 23.375ZM22 12.375C19.7253 12.375 17.875 14.2253 17.875 16.5C17.875 18.7747 19.7253 20.625 22 20.625C24.2747 20.625 26.125 18.7747 26.125 16.5C26.125 14.2253 24.2747 12.375 22 12.375Z" fill="#384685"/>
</svg>
