<svg width="79" height="78" viewBox="0 0 79 78" fill="none" xmlns="http://www.w3.org/2000/svg">
<path d="M64.8535 27.2725L64.9239 29.5756C64.9526 29.7788 64.9671 29.9848 64.967 30.1928L64.9669 30.9823L65.2573 40.4758L65.2577 40.4888L65.2575 40.4888L65.2575 48.7699L65.2575 48.9305L65.1487 49.0557L62.1271 52.5333C62.6104 52.3344 63.0608 52.0815 63.4689 51.7832C64.871 50.7582 65.7632 49.2031 65.7635 47.4704L64.8535 27.2725ZM64.8535 27.2725C65.4471 28.1354 65.7643 29.1303 65.7648 30.1712C65.7648 30.1713 65.7648 30.1714 65.7648 30.1715L65.7635 47.4703L64.8535 27.2725ZM60.7331 52.9364L59.3102 52.279L59.5311 51.3867C61.9483 51.3868 63.9136 49.6263 63.914 47.4713L63.9153 30.975L63.8742 29.6304C63.7456 28.7941 63.3191 28.0245 62.641 27.418C61.8183 26.6827 60.7256 26.2762 59.557 26.2767L59.5567 26.2767L20.6324 26.2749L19.4041 26.3137C19.417 26.4524 19.4637 26.649 19.5349 26.9193C19.5399 26.9385 19.5451 26.958 19.5503 26.9778C19.6292 27.2764 19.7256 27.6409 19.7457 27.9733C19.7665 28.3189 19.7151 28.7778 19.3015 29.0801C19.2694 29.1036 19.2054 29.148 19.1141 29.1791L22.2725 32.3205L22.5906 32.6369L22.2837 32.9501C22.0316 33.2075 21.6278 33.4737 21.1653 33.7381C20.6922 34.0085 20.116 34.3 19.4866 34.6032C18.8405 34.9143 18.1012 35.2547 17.3479 35.6016C17.3011 35.6231 17.2543 35.6447 17.2074 35.6663L18.0091 38.1781L18.0297 38.2427L18.0297 38.3096L18.0297 40.6145C18.095 40.7037 18.1118 40.7885 18.1167 40.8137C18.1288 40.8764 18.1269 40.932 18.1247 40.9646C18.1166 41.0871 18.0726 41.265 18.0141 41.4747L17.754 41.4409C17.7483 41.4487 17.7425 41.4567 17.7367 41.4648C17.6729 41.5527 17.5974 41.6569 17.5175 41.762C17.3074 42.0386 17.0105 42.4007 16.6736 42.6248C16.5037 42.7378 16.2699 42.8527 15.9901 42.8592C15.7121 42.8657 15.4665 42.7642 15.2718 42.5934L10.4268 40.0123L10.3529 39.973L10.2961 39.9149C10.1219 39.737 10.0172 39.5235 10.0052 39.2872C9.99376 39.0605 10.0694 38.8521 10.1759 38.673C10.3825 38.3256 10.7629 37.9926 11.2009 37.6817C12.0903 37.0504 13.4278 36.3669 14.8258 35.7014C15.2217 35.513 15.6169 35.3285 16.0085 35.1472L16.3885 27.8629L16.2341 27.7093L16.3959 27.721L16.4918 25.8833L16.514 25.4581L16.9872 25.4432L18.9176 25.3822C19.0333 25.3447 19.1552 25.3294 19.274 25.3293L19.2743 25.3293L20.5913 25.3294L38.897 24.7515L38.9062 24.7512L38.9154 24.7512L53.0351 24.7512L59.3646 24.7512L59.4552 24.7512L59.5413 24.7785L63.8168 26.1347C62.6615 25.1591 61.1576 24.6224 59.5557 24.6221L60.7331 52.9364ZM60.7331 52.9364C60.3442 53.0047 59.9424 53.0405 59.5316 53.0406L19.2729 53.0396C19.2728 53.0396 19.2728 53.0396 19.2727 53.0396C17.4737 53.0392 15.7695 52.345 14.5947 51.1397L14.5945 51.1396L6.15924 42.4932L6.15855 42.4925C4.12414 40.4152 4.11542 37.2674 6.16615 35.1734L6.16677 35.1728L14.6018 26.528L14.6021 26.5277C15.7834 25.3149 17.4968 24.6208 19.2959 24.6203C19.296 24.6203 19.2961 24.6203 19.2961 24.6203L59.5556 24.6221L60.7331 52.9364ZM63.7993 27.1812C63.7759 27.1548 63.7521 27.1285 63.728 27.1024L63.7975 27.1245L63.7993 27.1812ZM18.9746 33.7675C18.3761 34.0557 17.742 34.3487 17.0883 34.6496L17.3904 28.8594L21.1436 32.5925C20.9949 32.6949 20.8098 32.8099 20.5875 32.937C20.1463 33.1892 19.5962 33.4682 18.9746 33.7675ZM17.5349 27.8037L17.4458 27.7972L17.5201 26.3732L18.3548 26.3469C18.3751 26.5995 18.4474 26.8737 18.5076 27.1022L18.5118 27.1182L18.5184 27.1434C18.605 27.4721 18.6809 27.76 18.6956 28.0041C18.6965 28.0192 18.6971 28.0335 18.6975 28.0473C18.4321 27.9324 18.0653 27.8421 17.5349 27.8037Z" fill="#E13B3F" stroke="#E13B3F"/>
<path d="M14.7664 35.5215L14.7436 35.5215C13.7545 35.5215 12.8247 35.8662 12.1197 36.4952C11.4172 37.1241 11.033 37.9561 11.0329 38.8402M14.7664 35.5215L14.7204 42.1397C12.683 42.1394 11.0326 40.6582 11.0329 38.8402M14.7664 35.5215C16.7771 35.5332 18.4048 36.9855 18.4297 38.7765L18.4297 38.8207C18.4299 39.8518 17.8995 40.7794 17.0622 41.3915C16.4218 41.8596 15.6066 42.1395 14.7206 42.1397L14.7664 35.5215ZM11.0329 38.8402L10.507 38.8299M11.0329 38.8402L10.507 38.8299M10.507 38.8299C10.5068 40.9151 12.4019 42.6122 14.7319 42.6125L11.745 36.1563C10.9471 36.8704 10.5073 37.8199 10.507 38.8299ZM17.6326 38.3642L17.6329 38.8402C17.6337 40.2717 16.338 41.4305 14.7427 41.4299C13.1404 41.43 11.8298 40.2601 11.8296 38.8205L17.6326 38.3642ZM17.6326 38.3642L17.5842 38.3636M17.6326 38.3642L17.5842 38.3636M17.5842 38.3636C17.3331 37.1515 16.1415 36.2317 14.7205 36.2314L14.7203 36.2314C14.047 36.2314 13.4089 36.4357 12.895 36.8114C12.8186 36.8673 12.747 36.9259 12.6797 36.9852L12.6797 36.9851L12.6768 36.9877C12.1321 37.4749 11.8293 38.1262 11.8296 38.8202L17.5842 38.3636Z" fill="#E13B3F" stroke="#E13B3F"/>
</svg>
