<svg width="21" height="21" viewBox="0 0 21 21" fill="none" xmlns="http://www.w3.org/2000/svg">
<path d="M19.7713 20.4917C19.588 20.4917 19.4048 20.4218 19.2649 20.2818L10.8273 11.8426C10.5475 11.5627 10.5475 11.1094 10.8273 10.8295C11.1071 10.5497 11.5603 10.5497 11.8401 10.8295L20.2777 19.2688C20.5575 19.5487 20.5575 20.002 20.2777 20.2818C20.1378 20.4218 19.9546 20.4917 19.7713 20.4917Z" fill="#A8D1E7"/>
<path d="M7.11454 13.7972C5.40366 13.7972 3.69207 13.1456 2.38967 11.8426C-0.215828 9.23655 -0.215828 4.99662 2.38967 2.3906C3.6515 1.12817 5.32951 0.43277 7.11454 0.43277C8.90027 0.43277 10.5783 1.12817 11.8401 2.3906C14.4456 4.99662 14.4456 9.23655 11.8401 11.8426C10.5377 13.1456 8.82613 13.7972 7.11454 13.7972ZM7.11454 1.86555C5.71282 1.86555 4.39433 2.41159 3.40249 3.40363C1.35587 5.45101 1.35587 8.78216 3.40249 10.8295C5.44982 12.8773 8.78136 12.8759 10.8273 10.8295C12.8739 8.78216 12.8739 5.45101 10.8273 3.40363C9.83545 2.41159 8.51697 1.86555 7.11454 1.86555Z" fill="#A8D1E7"/>
</svg>
